# xmcd
#
# Track frame offsets: 
#        150
#        14400
#        41200
#        62775
#        81150
#        94175
#        113512
#        130162
#        143587
#        161662
#        179487
#        195375
#        212505
#        241755
#        279600
#        294525
#        311050
#
# Disc length: 4503 seconds
#
# Revision: 8
# Processed by: cddbd v1.5.2PL0 Copyright (c) Steve Scherf et al.
# Submitted via: ExactAudioCopyFreeDBPlugin 1.0
#
DISCID=f1119511
DTITLE=Blues Company - Damn! Let's Jam
DYEAR=1991
DGENRE=Blues
TTITLE0=She Ain't Got Rhythm
TTITLE1=Silent Nite
TTITLE2=Fool
TTITLE3=Uh Wee Baby
TTITLE4=Overflow
TTITLE5=Tell Me Why
TTITLE6=Bad Dreams (feat. Luther Allison)
TTITLE7=They Called Him Muddy Waters
TTITLE8=Bad Decision
TTITLE9=Blues 4 Breakfast
TTITLE10=Well, Well, Well
TTITLE11=Intro (feat.Johnny Heartsman)
TTITLE12=Comin´Home, Baby  (feat. Johnny Heartsman)
TTITLE13=Move On Down The Line  (feat. Johnny Heartsman)
TTITLE14=Dangerous Daddy
TTITLE15=Damn! Let's Jam
TTITLE16=Ev'ryday I Have The Blues
EXTD=Label: in-akustik\nINAK 9009 CD\nEAN/UPC: 4001985090099\nfeat. Lu
EXTD=thern Allison, Stan Webb, Johnny Heartsman, The 'Juke' Horns and 
EXTD=others YEAR: 1991
EXTT0=
EXTT1=
EXTT2=
EXTT3=
EXTT4=
EXTT5=
EXTT6=
EXTT7=
EXTT8=
EXTT9=
EXTT10=
EXTT11=
EXTT12=
EXTT13=
EXTT14=
EXTT15=
EXTT16=
PLAYORDER=
